<svg width="424" height="424" xmlns="http://www.w3.org/2000/svg" style="vector-effect: non-scaling-stroke;" stroke="null">
 <!-- Created with Method Draw - http://github.com/duopixel/Method-Draw/ -->
 <g stroke="null">
  <title stroke="null">background</title>
  <rect stroke="null" fill="none" id="canvas_background" height="426" width="426" y="-1" x="-1"/>
 </g>
 <g stroke="null">
  <title stroke="null">Layer 1</title>
  <path stroke="#f2ffe9" transform="rotate(-26.188905715942383 -1090.6636962890623,-763.5014648437499) " id="svg_10" d="m-1090.66349,-2377.43728c-635.32419,0 -1150.44716,577.67205 -1150.44716,1290.31625c0,407.61899 169.10185,770.80375 432.38315,1007.18066c-37.46124,209.56555 -112.22131,441.67559 -256.71308,646.9676c0,0 337.2748,-37.67341 575.49723,-445.34776c13.71443,5.6765 27.91016,9.94911 41.75434,15.19068c-13.01064,-65.51522 -20.67025,-133.62215 -20.67025,-204.4855c0,-480.80704 317.21536,-857.29085 722.35909,-857.29085c290.99916,0 535.85711,194.97065 651.12105,482.64519c98.12331,-189.89206 155.16231,-409.83632 155.16231,-645.02382c0,-712.48042 -515.12289,-1290.15247 -1150.4466,-1290.15247l-0.00008,0zm982.43448,2309.93184c0,-395.29677 -285.71272,-715.99587 -638.36745,-715.99587c-352.46236,0 -638.33614,320.6991 -638.33614,715.99587c0,395.50883 285.87378,716.04815 638.33614,716.04815c78.06047,0 152.40582,-16.48734 221.52736,-45.24141c132.15297,226.3219 319.29494,247.13294 319.29494,247.13294c-80.1425,-113.94732 -121.54491,-242.70494 -142.37566,-359.08193c145.99803,-131.0243 239.92083,-332.53851 239.92083,-558.85775z" stroke-opacity="0.18" stroke-width="NaN" fill="#f2ffe9"/>
 </g>
</svg>